# xmcd
#
# Track frame offsets: 
#        150
#        18384
#        29265
#        48613
#        76409
#        93402
#        112137
#        129957
#        157312
#        174963
#        197318
#        213919
#        230775
#        245357
#
# Disc length: 3447 seconds
#
# Revision: 7
# Processed by: cddbd v1.5.2PL0 Copyright (c) Steve Scherf et al.
# Submitted via: ExactAudioCopyFreeDBPlugin 1.0
#
DISCID=b70d750e
DTITLE=Martyna Jakubowicz - Total
DYEAR=1999
DGENRE=Blues
TTITLE0=Blues o zużytych butach i szczęśliwym końcu drogi
TTITLE1=Kretyni i osły
TTITLE2=Albo cacy, albo lili
TTITLE3=Kołysanka dla misiaków
TTITLE4=Młode wino
TTITLE5=Ludzie błądzą
TTITLE6=Gdzieś między
TTITLE7=Wschodnia wioska
TTITLE8=Gorąca sień
TTITLE9=W domach z betonu
TTITLE10=Stłucz szybę, wyrzuć klucz
TTITLE11=Kiedy będę starą kobietą
TTITLE12=Wróżba nie służba
TTITLE13=Która to faza
EXTD=
EXTT0=
EXTT1=
EXTT2=
EXTT3=
EXTT4=
EXTT5=
EXTT6=
EXTT7=
EXTT8=
EXTT9=
EXTT10=
EXTT11=
EXTT12=
EXTT13=
PLAYORDER=
